<?xml version="1.0" encoding="utf-8"?>
<!-- Generator: Adobe Illustrator 24.2.0, SVG Export Plug-In . SVG Version: 6.00 Build 0)  -->
<svg version="1.1" id="Layer_1" xmlns="http://www.w3.org/2000/svg" xmlns:xlink="http://www.w3.org/1999/xlink" x="0px" y="0px"
	 viewBox="0 0 1366 291" style="enable-background:new 0 0 1366 291;" xml:space="preserve">
<style type="text/css">
	.st0{fill:#1087FF;}
	.st1{fill:none;}
</style>
<g id="TecMundo_2020_1_">
	<g id="logo-tecmundo-azul_1_" transform="translate(4 -2.6)">
		<path id="Path_1581_1_" class="st0" d="M1173.62,76.63v56.88l-4.1-3.71c-9.3-5.57-19.87-8.67-30.71-9
			c-2.83-0.09-5.67,0.09-8.47,0.53c-13.41,1.87-25.57,8.9-33.88,19.59c-15.98,20.5-16.82,48.99-2.09,70.41
			c6.6,9.78,16.3,17.04,27.53,20.63c5.62,1.91,11.54,2.81,17.47,2.65c10.76-0.39,21.27-3.29,30.71-8.47l5.18-2.65v11.42h24.42V67.1
			L1173.62,76.63z M1141.46,210.48c-3.42,0.35-6.82-0.19-10.06-1.27c-0.83-0.02-1.61-0.41-2.12-1.99h-0.53
			c-4.4-1.1-8.36-3.98-11.65-7.54c-5.47-5.91-8.49-13.66-8.47-21.71c0-18.13,14.7-32.82,32.82-32.82c18.13,0,32.82,14.7,32.82,32.82
			c0.1,18.03-14.44,32.73-32.47,32.51L1141.46,210.48L1141.46,210.48z"/>
		<path id="Path_1582_1_" class="st0" d="M921.28,120.94v59.82c0,18-11.6,30.71-27.94,30.71s-27.41-12.71-27.41-30.71v-59.82h-26.05
			v59.82c0,32.29,21.8,55.06,52.64,55.06c31.38,0,53.17-22.76,53.17-55.06v-59.82H921.28z"/>
		<path id="Path_1583_1_" class="st0" d="M1273.82,235.68c-31.72-0.15-57.32-25.98-57.18-57.71s25.98-57.32,57.71-57.18
			c31.52,0.15,57.03,25.66,57.18,57.18c0.3,31.57-25.06,57.41-56.63,57.71C1274.53,235.68,1274.18,235.68,1273.82,235.68z
			 M1272.92,145.41c-18.13,0-32.83,14.7-32.83,32.83c0,18.13,14.7,32.83,32.83,32.83c0,0,0,0,0,0c18.12-0.14,32.7-14.94,32.56-33.06
			c0-0.01,0-0.03,0-0.04c0.3-17.68-13.79-32.25-31.47-32.55C1273.64,145.41,1273.28,145.41,1272.92,145.41L1272.92,145.41z"/>
		<path id="Path_1584_1_" class="st0" d="M664.07,235.67v-59.81c-0.66-18,10.46-30.71,26.87-30.71s28.06,12.71,28.48,30.71v60.67
			h24.42v-60.14c0.05-18,11.69-30.71,28.11-30.71s27.53,12.71,27.24,30.71v60.14h26.05v-59.82c0-32.29-21.74-55.06-52.5-55.06
			c-15.45-0.32-30.24,6.28-40.3,18c-10.06-11.72-24.84-18.32-40.3-18c-30.76,0-52.5,22.76-52.5,55.06v59.82h23.78L664.07,235.67z"/>
		<path id="Path_1585_1_" class="st0" d="M387.31,234.9h-20.26c-25.73,0-38.34-14.76-38.34-43.76v-57.47l0,0v-14.24l0,0v-52.2h16.28
			v53.72h34.19v14.65h-34.19v55.87c0,20.39,7.93,28.78,24.87,28.78h17.46V234.9z"/>
		<path id="Path_1586_1_" class="st0" d="M504.08,184.43h-89.97c1.35,20.55,19.03,36.16,39.59,34.96c14.4,0,25.71-5.15,30.85-15.43
			h16.97c-6.17,18-24.68,29.82-47.81,29.82c-29.84,0.55-54.48-23.19-55.04-53.03c-0.02-1-0.01-2.01,0.03-3.01
			c-1.06-29.6,22.08-54.45,51.68-55.51c1.11-0.04,2.22-0.04,3.33-0.02c30.34,0,51.41,23.14,51.41,55.01
			C504.57,179.81,504.57,182.38,504.08,184.43z M413,171.41h76.76c-2.12-21.71-15.88-36.54-37.06-36.54
			C431.76,134.31,414.17,150.5,413,171.41z"/>
		<path id="Path_1587_1_" class="st0" d="M608.35,207.09c-7.06,9.13-18.12,14.26-29.65,13.76c-24.35,0-40.23-19.06-40.23-42.35
			s15.88-42.35,40.23-42.35c11.51-0.38,22.51,4.73,29.65,13.76l13.76-6.88c-10.04-13.85-26.31-21.79-43.41-21.18
			c-30.84-0.45-56.2,24.17-56.66,55.01c-0.01,0.72-0.01,1.45,0.01,2.17c-0.95,30.91,23.34,56.74,54.25,57.69
			c0.8,0.02,1.6,0.03,2.4,0.02c17.18,0.42,33.44-7.71,43.41-21.71L608.35,207.09z"/>
		<path id="Path_1588_1_" class="st0" d="M1208.69,176.92"/>
		<line id="Line_162_1_" class="st1" x1="664.07" y1="190.95" x2="664.07" y2="169.78"/>
		<path id="Path_1589_1_" class="st0" d="M988.03,234.9v-59.82c0-18,11.6-30.71,27.94-30.71s27.41,12.71,27.41,30.71v59.82h24.42
			v-59.82c0-32.29-21.8-55.06-52.64-55.06c-31.38,0-53.17,22.76-53.17,55.06v59.82H988.03z"/>
		<path id="Path_1590_1_" class="st0" d="M167.54,254.74v-65.99l-46.64,47.12l-46.16-47.12v73.09c-0.05,7.55,6.03,13.71,13.59,13.76
			c0.06,0,0.66,0,0.66,0h65.65c7.55-0.14,13.71-6.21,12.9-13.76v-0.2v-6.88V254.74z"/>
		<path id="Path_1591_1_" class="st0" d="M221.64,28.15H21.22C13.79,28.32,7.89,34.44,8,41.86v65.38
			c-0.05,7.52,6.02,13.65,13.56,13.71c0.06,0,0.13,0,0.19,0h61.87l38.07,38.49l38.6-38.49h61.88c7.54-0.13,13.61-6.19,13.75-13.71
			V41.86C235.18,34.41,229.13,28.6,221.64,28.15z"/>
		<path id="Path_1592_1_" class="st0" d="M121.3,159.45"/>
	</g>
</g>
</svg>
